<?xml version="1.0" encoding="utf-8"?>
<!-- Generator: Adobe Illustrator 25.2.3, SVG Export Plug-In . SVG Version: 6.00 Build 0)  -->
<svg version="1.1" id="Layer_1" xmlns="http://www.w3.org/2000/svg" xmlns:xlink="http://www.w3.org/1999/xlink" x="0px" y="0px"
	 viewBox="0 0 367 201" enable-background="new 0 0 367 201" xml:space="preserve">
<g id="As_delivered">
	<g>
		<g>
			<path fill="#FFFFFF" d="M183,76.5h-3.7c-0.3,0-0.5,0.1-0.7,0.4l-17.8,30l-17.8-30c-0.1-0.2-0.4-0.4-0.7-0.4h-3.7
				c-0.4,0-0.8,0.4-0.8,0.8v46c0,0.4,0.4,0.8,0.8,0.8h4.8c0.2,0,0.4-0.1,0.6-0.2s0.2-0.4,0.2-0.6l-0.1-32.7l14.5,24.1
				c0.1,0.2,0.4,0.4,0.7,0.4h3.2c0.3,0,0.5-0.1,0.7-0.4l14.3-23.9l-0.1,32.5c0,0.2,0.1,0.4,0.2,0.6c0.2,0.2,0.4,0.2,0.6,0.2h4.8
				c0.4,0,0.8-0.4,0.8-0.8v-46C183.8,76.8,183.5,76.5,183,76.5z"/>
			<path fill="#FFFFFF" d="M209.8,90.4c-9.7,0-17,7.4-17,17.2c0,9.9,7.3,17.3,17,17.3c7.2,0,13-3.7,15-9.3c0.1-0.2,0-0.5-0.1-0.7
				c-0.2-0.2-0.4-0.3-0.7-0.3h-5c-0.3,0-0.6,0.2-0.7,0.5c-1.3,2.7-4.4,4.3-8.3,4.3c-5.6,0-9.8-3.5-10.8-9.1h25.5h0.1
				c0.2,0,0.4,0,0.5-0.1c0.2-0.1,0.4-0.4,0.4-0.6c0.1-0.7,0.1-1.4,0.1-2.1C225.8,97.6,219,90.4,209.8,90.4z M209.7,96
				c5.3,0,9,3.5,9.8,9.1h-20.3C200.1,100.4,203.5,96,209.7,96z"/>
			<path fill="#FFFFFF" d="M254.7,118.5c-0.2-0.1-0.4-0.2-0.6-0.1c-1.8,0.5-3.6,0.8-5.1,0.8c-4.4,0-6.2-2.1-6.2-7.2V96.8h11
				c0.4,0,0.8-0.4,0.8-0.8v-4c0-0.4-0.4-0.8-0.8-0.8h-11V80.4c0-0.4-0.4-0.8-0.8-0.8h-4.6c-0.4,0-0.8,0.4-0.8,0.8v10.8h-7.5
				c-0.4,0-0.8,0.4-0.8,0.8v4c0,0.4,0.4,0.8,0.8,0.8h7.5V112c0,8.5,4,13,11.6,13c2.3,0,4.1-0.3,7-1.1c0.4-0.1,0.6-0.5,0.6-0.9
				l-0.7-4C255,118.8,254.9,118.6,254.7,118.5z"/>
			<path fill="#FFFFFF" d="M280.1,90.4c-4.4,0-8.4,1.7-11.4,4.8V92c0-0.4-0.4-0.8-0.8-0.8h-4.6c-0.4,0-0.8,0.4-0.8,0.8v31.2
				c0,0.4,0.4,0.8,0.8,0.8h4.6c0.4,0,0.8-0.4,0.8-0.8V103c2.6-4.2,6.7-6.5,11.5-6.7c0.4,0,0.8-0.4,0.8-0.8v-4.4
				C280.9,90.7,280.5,90.4,280.1,90.4z"/>
			<path fill="#FFFFFF" d="M301.3,90.4c-9.8,0-17.4,7.6-17.4,17.2c0,9.8,7.7,17.4,17.4,17.4c9.7,0,17.4-7.7,17.4-17.4
				C318.7,98,311.1,90.4,301.3,90.4z M301.3,119.3c-6.3,0-11.2-5.1-11.2-11.6c0-6.4,4.9-11.4,11.2-11.4s11.2,5,11.2,11.4
				C312.5,114.2,307.6,119.3,301.3,119.3z"/>
		</g>
		<path fill="#FFFFFF" d="M84.2,47.7c-20.2,0-36.9,16.4-36.9,37v31.5c0,20.5,15.8,37.6,37,37.6c20.9,0,36.9-17,36.9-37V84.7
			C121.1,64.9,105.1,47.7,84.2,47.7z M55,71.7c4.7-10.5,15.6-19,29.2-19c13.7,0,24.8,8.8,29.3,19c0.3,0.6-0.3,1.4-1.1,1l-10.6-6.6
			c-0.6-0.4-1.4-0.4-2.1,0c-3.7,1.7-14.8,6.8-15.1,7c-0.2,0.1-0.4,0.1-0.6,0C83.7,73,72.4,68,68.6,66.2c-0.8-0.4-1.7-0.4-2.2,0
			c0,0-10,6.4-10.3,6.6C55.4,73.1,54.7,72.3,55,71.7z M71.5,86.5c-1.2-0.9-2-2.3-2-3.8v-7.2c0-1.8,1.9-3.1,3.6-2.4L84,78.4
			c0.3,0.1,0.5,0.1,0.7,0l10.6-5.3c1.7-0.7,3.6,0.5,3.6,2.4v7.2c0,1.5-0.7,3-2,3.9l-12.1,8.6c-0.2,0.2-0.6,0.2-0.8,0L71.5,86.5z
			 M82.2,99.6v12.8c0,0.6-0.7,1-1.2,0.6l-11.2-7.8c-0.2-0.2-0.3-0.4-0.3-0.7V91.9c0-0.6,0.7-1,1.3-0.6l11.1,7.6
			C82.1,99.1,82.2,99.3,82.2,99.6z M52.2,84.8c0-2.1,0.2-3.8,0.3-4.4c0-0.3,0.2-0.5,0.4-0.6L64,72.7c0.6-0.4,1.3-0.1,1.3,0.7V85
			c0,0.3-0.1,0.5-0.4,0.7l-11.5,7.4c-0.5,0.3-1.1-0.1-1.1-0.7L52.2,84.8z M52.3,112V99.6c0-0.5,0.2-0.6,0.4-0.8l11.4-7.6
			c0.5-0.3,1.2,0,1.2,0.7v12.6c0,0.3-0.1,0.6-0.3,0.7l-11.6,7.4C52.8,112.9,52.3,112.5,52.3,112z M94.8,147c-2.8,1-6.2,1.8-10.5,1.8
			c-5.7,0-12.3-1.7-17.3-5.1c-0.5-0.3-0.4-1.1,0.1-1.3c1.5-0.9,3.2-1.4,6.1-1.8c8-1,13.7,2.9,21.5,4.9
			C95.4,145.8,95.5,146.7,94.8,147z M110.4,135.2c-2.1,2.9-3.5,4.4-6.3,6.7c-0.6,0.5-1.3,0.7-2.1,0.7c-9.9-0.1-17.7-7.8-29.4-6.4
			c-4.6,0.6-7.7,2.1-9.9,3.5c-0.3,0.2-0.7,0.1-1-0.1c-2-2-3.4-3.8-4.9-6.2c-0.2-0.3-0.1-0.8,0.3-1c2.7-1.5,6.9-3.3,14-3.3
			c12.2,0,20.4,5.7,32.2,5.7c2.3,0,3.8-0.2,6.3-0.8C110.3,133.9,110.8,134.7,110.4,135.2z M114.8,126.5c-0.2,0.6-0.7,1.2-1.1,1.6
			c-2.7,1.7-5.2,2.2-10.3,2.2c-11.8,0-19.4-5.4-32-5.4c-7.8,0-12.8,1.8-16,3.5c-0.5,0.2-0.9-0.1-1-0.4c-1.1-2.8-1.7-5.5-1.9-8.6
			c-0.1-0.9,0-1,0.4-1.3l11.3-7.2c0.6-0.4,1.2,0.1,1.2,0.5v7.3c0,0.4,0.3,0.8,0.8,0.8h2.7c0.4,0,0.7-0.3,0.7-0.8v-7.2
			c0-0.6,0.7-1,1.2-0.6l10.9,8.2c0.2,0.2,0.7,0.4,1.2,0.4H97c0.5,0,0.8-0.4,0.8-0.8v-11.3c0-0.4,0.3-0.7,0.7-0.7h5.6
			c0.4,0,0.7,0.3,0.7,0.7v11.3c0,0.4,0.3,0.8,0.8,0.8h9.6c0.5,0,0.9,0.4,0.8,0.9C115.7,122.5,115.3,124.5,114.8,126.5z M116.2,114.5
			c0,0.4-0.3,0.8-0.8,0.8h-5.6c-0.5,0-0.8-0.4-0.8-0.7v-11.3c0-0.4-0.3-0.8-0.8-0.8h-14c-0.4,0-0.7,0.3-0.7,0.7v11.3
			c0,0.4-0.4,0.7-0.7,0.7h-5.6c-0.4,0-0.8-0.3-0.8-0.8V99.5c0-0.2,0-0.5,0.3-0.6l13.6-9.6c0.3-0.2,0.6-0.2,0.9,0l14.4,9.5
			c0.3,0.2,0.5,0.6,0.5,0.9L116.2,114.5L116.2,114.5z M116.2,92.6c0,0.5-0.6,0.9-1.1,0.6l-11.6-7.6c-0.3-0.2-0.4-0.5-0.4-0.8V73.2
			c0-0.6,0.7-1,1.3-0.6l11.4,7.4c0.2,0.1,0.3,0.3,0.3,0.5c0.2,1.3,0.3,2.7,0.3,4.1L116.2,92.6z"/>
	</g>
</g>
<g id="New_logo_respaced" display="none">
	<g display="inline">
		<g>
			<path d="M189.1,76.5h-3.7c-0.3,0-0.5,0.1-0.7,0.4l-17.8,30l-17.8-30c-0.1-0.2-0.4-0.4-0.7-0.4h-3.7c-0.4,0-0.8,0.4-0.8,0.8v46
				c0,0.4,0.4,0.8,0.8,0.8h4.8c0.2,0,0.4-0.1,0.6-0.2s0.2-0.4,0.2-0.6l-0.1-32.7l14.5,24.1c0.1,0.2,0.4,0.4,0.7,0.4h3.2
				c0.3,0,0.5-0.1,0.7-0.4l14.3-23.9l-0.1,32.5c0,0.2,0.1,0.4,0.2,0.6c0.2,0.2,0.4,0.2,0.6,0.2h4.8c0.4,0,0.8-0.4,0.8-0.8v-46
				C189.9,76.8,189.5,76.5,189.1,76.5z"/>
			<path d="M215.9,90.4c-9.7,0-17,7.4-17,17.2c0,9.9,7.3,17.3,17,17.3c7.2,0,13-3.7,15-9.3c0.1-0.2,0-0.5-0.1-0.7
				c-0.2-0.2-0.4-0.3-0.7-0.3h-5c-0.3,0-0.6,0.2-0.7,0.5c-1.3,2.7-4.4,4.3-8.3,4.3c-5.6,0-9.8-3.5-10.8-9.1h25.5h0.1
				c0.2,0,0.4,0,0.5-0.1c0.2-0.1,0.4-0.4,0.4-0.6c0.1-0.7,0.1-1.4,0.1-2.1C231.8,97.6,225.1,90.4,215.9,90.4z M215.7,96
				c5.3,0,9,3.5,9.8,9.1h-20.3C206.1,100.4,209.6,96,215.7,96z"/>
			<path d="M260.7,118.5c-0.2-0.1-0.4-0.2-0.6-0.1c-1.8,0.5-3.6,0.8-5.1,0.8c-4.4,0-6.2-2.1-6.2-7.2V96.8h11c0.4,0,0.8-0.4,0.8-0.8
				v-4c0-0.4-0.4-0.8-0.8-0.8h-11V80.4c0-0.4-0.4-0.8-0.8-0.8h-4.6c-0.4,0-0.8,0.4-0.8,0.8v10.8h-7.5c-0.4,0-0.8,0.4-0.8,0.8v4
				c0,0.4,0.4,0.8,0.8,0.8h7.5V112c0,8.5,4,13,11.6,13c2.3,0,4.1-0.3,7-1.1c0.4-0.1,0.6-0.5,0.6-0.9l-0.7-4
				C261.1,118.8,260.9,118.6,260.7,118.5z"/>
			<path d="M286.1,90.4c-4.4,0-8.4,1.7-11.4,4.8V92c0-0.4-0.4-0.8-0.8-0.8h-4.6c-0.4,0-0.8,0.4-0.8,0.8v31.2c0,0.4,0.4,0.8,0.8,0.8
				h4.6c0.4,0,0.8-0.4,0.8-0.8V103c2.6-4.2,6.7-6.5,11.5-6.7c0.4,0,0.8-0.4,0.8-0.8v-4.4C286.9,90.7,286.6,90.4,286.1,90.4z"/>
			<path d="M307.4,90.4c-9.8,0-17.4,7.6-17.4,17.2c0,9.8,7.7,17.4,17.4,17.4c9.7,0,17.4-7.7,17.4-17.4
				C324.8,98,317.1,90.4,307.4,90.4z M307.4,119.3c-6.3,0-11.2-5.1-11.2-11.6c0-6.4,4.9-11.4,11.2-11.4c6.3,0,11.2,5,11.2,11.4
				C318.5,114.2,313.6,119.3,307.4,119.3z"/>
		</g>
		<path d="M84.2,47.7c-20.2,0-36.9,16.4-36.9,37v31.5c0,20.5,15.8,37.6,37,37.6c20.9,0,36.9-17,36.9-37V84.7
			C121.1,64.9,105.1,47.7,84.2,47.7z M55,71.7c4.7-10.5,15.6-19,29.2-19c13.7,0,24.8,8.8,29.3,19c0.3,0.6-0.3,1.4-1.1,1l-10.6-6.6
			c-0.6-0.4-1.4-0.4-2.1,0c-3.7,1.7-14.8,6.8-15.1,7c-0.2,0.1-0.4,0.1-0.6,0C83.7,73,72.4,68,68.6,66.2c-0.8-0.4-1.7-0.4-2.2,0
			c0,0-10,6.4-10.3,6.6C55.4,73.1,54.7,72.3,55,71.7z M71.5,86.5c-1.2-0.9-2-2.3-2-3.8v-7.2c0-1.8,1.9-3.1,3.6-2.4L84,78.4
			c0.3,0.1,0.5,0.1,0.7,0l10.6-5.3c1.7-0.7,3.6,0.5,3.6,2.4v7.2c0,1.5-0.7,3-2,3.9l-12.1,8.6c-0.2,0.2-0.6,0.2-0.8,0L71.5,86.5z
			 M82.2,99.6v12.8c0,0.6-0.7,1-1.2,0.6l-11.2-7.8c-0.2-0.2-0.3-0.4-0.3-0.7V91.9c0-0.6,0.7-1,1.3-0.6l11.1,7.6
			C82.1,99.1,82.2,99.3,82.2,99.6z M52.2,84.8c0-2.1,0.2-3.8,0.3-4.4c0-0.3,0.2-0.5,0.4-0.6L64,72.7c0.6-0.4,1.3-0.1,1.3,0.7V85
			c0,0.3-0.1,0.5-0.4,0.7l-11.5,7.4c-0.5,0.3-1.1-0.1-1.1-0.7L52.2,84.8z M52.3,112V99.6c0-0.5,0.2-0.6,0.4-0.8l11.4-7.6
			c0.5-0.3,1.2,0,1.2,0.7v12.6c0,0.3-0.1,0.6-0.3,0.7l-11.6,7.4C52.8,112.9,52.3,112.5,52.3,112z M94.8,147c-2.8,1-6.2,1.8-10.5,1.8
			c-5.7,0-12.3-1.7-17.3-5.1c-0.5-0.3-0.4-1.1,0.1-1.3c1.5-0.9,3.2-1.4,6.1-1.8c8-1,13.7,2.9,21.5,4.9
			C95.4,145.8,95.5,146.7,94.8,147z M110.4,135.2c-2.1,2.9-3.5,4.4-6.3,6.7c-0.6,0.5-1.3,0.7-2.1,0.7c-9.9-0.1-17.7-7.8-29.4-6.4
			c-4.6,0.6-7.7,2.1-9.9,3.5c-0.3,0.2-0.7,0.1-1-0.1c-2-2-3.4-3.8-4.9-6.2c-0.2-0.3-0.1-0.8,0.3-1c2.7-1.5,6.9-3.3,14-3.3
			c12.2,0,20.4,5.7,32.2,5.7c2.3,0,3.8-0.2,6.3-0.8C110.3,133.9,110.8,134.7,110.4,135.2z M114.8,126.5c-0.2,0.6-0.7,1.2-1.1,1.6
			c-2.7,1.7-5.2,2.2-10.3,2.2c-11.8,0-19.4-5.4-32-5.4c-7.8,0-12.8,1.8-16,3.5c-0.5,0.2-0.9-0.1-1-0.4c-1.1-2.8-1.7-5.5-1.9-8.6
			c-0.1-0.9,0-1,0.4-1.3l11.3-7.2c0.6-0.4,1.2,0.1,1.2,0.5v7.3c0,0.4,0.3,0.8,0.8,0.8h2.7c0.4,0,0.7-0.3,0.7-0.8v-7.2
			c0-0.6,0.7-1,1.2-0.6l10.9,8.2c0.2,0.2,0.7,0.4,1.2,0.4H97c0.5,0,0.8-0.4,0.8-0.8v-11.3c0-0.4,0.3-0.7,0.7-0.7h5.6
			c0.4,0,0.7,0.3,0.7,0.7v11.3c0,0.4,0.3,0.8,0.8,0.8h9.6c0.5,0,0.9,0.4,0.8,0.9C115.7,122.5,115.3,124.5,114.8,126.5z M116.2,114.5
			c0,0.4-0.3,0.8-0.8,0.8h-5.6c-0.5,0-0.8-0.4-0.8-0.7v-11.3c0-0.4-0.3-0.8-0.8-0.8h-14c-0.4,0-0.7,0.3-0.7,0.7v11.3
			c0,0.4-0.4,0.7-0.7,0.7h-5.6c-0.4,0-0.8-0.3-0.8-0.8V99.5c0-0.2,0-0.5,0.3-0.6l13.6-9.6c0.3-0.2,0.6-0.2,0.9,0l14.4,9.5
			c0.3,0.2,0.5,0.6,0.5,0.9L116.2,114.5L116.2,114.5z M116.2,92.6c0,0.5-0.6,0.9-1.1,0.6l-11.6-7.6c-0.3-0.2-0.4-0.5-0.4-0.8V73.2
			c0-0.6,0.7-1,1.3-0.6l11.4,7.4c0.2,0.1,0.3,0.3,0.3,0.5c0.2,1.3,0.3,2.7,0.3,4.1L116.2,92.6z"/>
	</g>
</g>
<g id="Old_logo_for_ref" display="none">
	<g display="inline" opacity="0.2">
		<circle fill="#FFFFFF" cx="78.1" cy="102.2" r="40.2"/>
		<g>
			<g>
				<circle fill="#FFFFFF" cx="79.1" cy="101.7" r="41"/>
				<circle fill="#FFFFFF" cx="79.1" cy="101.7" r="41"/>
			</g>
			<g>
				<path fill="#191919" d="M79.1,59.7c-23.3,0-42.2,18.9-42.2,42.2s18.9,42.2,42.2,42.2s42.2-18.9,42.2-42.2S102.4,59.7,79.1,59.7z
					 M79.1,141.3c-21.8,0-39.4-17.7-39.4-39.4c0-21.8,17.7-39.4,39.4-39.4c21.8,0,39.4,17.7,39.4,39.4S100.9,141.3,79.1,141.3z"/>
				<path fill="#191919" d="M82.1,93.2c0.2,0.5,0.5,1.3,0.7,1.9l1-2c-0.3-0.3-0.6-0.8-0.9-1.3c-3.9-8.4-8.6-17.1-14.2-25
					c-0.2,0.1-0.3,0.1-0.5,0.1c0.9,1.4,1.9,2.8,2.7,4.2C75.4,78.2,79.1,85.8,82.1,93.2z"/>
				<path fill="#191919" d="M79.7,97.9c0.2,0.5,0.5,1.2,0.6,1.8l1.1-2.1c-0.3-0.4-0.6-0.8-0.8-1.3C76.3,87,70.2,76.9,63.9,68.6
					c-0.1,0.1-0.3,0.1-0.4,0.2c1.4,2.1,2.8,4,4.1,6C72.2,82.1,76,89.2,79.7,97.9z"/>
				<path fill="#191919" d="M89.2,120.9c-0.5,0-1,0.1-1.4,0.3l0.7-1.4L63.8,73l-1.3,2.5c-0.2-0.2-0.6-0.5-1-1.1
					c-0.6-0.9-1.5-2.1-2.4-3.2c-0.1,0.1-0.3,0.2-0.4,0.3c0.8,1.2,1.8,2.4,2.4,3.5c0.3,0.6,0.6,1.2,0.7,1.8l-2.2,4.1
					c-0.3-0.2-0.6-0.5-1-1.1c-0.8-1.2-2.4-3.5-3.7-5.2c-0.1,0.1-0.2,0.2-0.4,0.3c1.3,1.9,3.1,4.3,3.7,5.6c0.4,0.8,0.6,1.3,0.7,1.7
					l-2.2,4.1c-0.2-0.2-0.6-0.5-1-1.1c-0.6-1-3-4.4-4.7-6.7c-0.1,0.1-0.2,0.2-0.3,0.4c1.8,2.5,4,6,4.6,7.2c0.4,0.8,0.6,1.3,0.7,1.7
					l-2.1,4c-0.2-0.2-0.6-0.5-1-1.2c-0.8-1.3-3.3-4.8-5.2-7.4c-0.1,0.2-0.2,0.3-0.3,0.4c1.9,2.7,4.3,6.4,4.9,7.9
					c0.4,0.9,0.6,1.4,0.7,1.8l-2,3.8c-0.3-0.3-0.6-0.6-1-1.2c-1-1.6-3.2-4.8-5.1-7.4c-0.1,0.2-0.1,0.3-0.2,0.5
					c1.7,2.6,3.8,6.1,4.6,7.9c0.5,1.2,0.7,1.5,0.8,1.8l-2.1,4c-0.3-0.2-0.6-0.6-1-1.2c-1.4-2.2-3-4.5-4-5.9c0,0.2-0.1,0.5-0.1,0.7
					c1.4,2.2,2.9,5.1,3.5,6.5c0.5,1.1,0.6,1.4,0.7,1.7l-1.8,3.5c-0.2-0.2-0.5-0.6-0.9-1.2c-0.5-0.8-1.2-1.7-1.9-2.6
					c0,0.3,0,0.6,0.1,0.9c0.3,0.5,0.8,1.3,1.1,2.1c0.4,0.8,0.6,1.2,0.8,2.2l-1,1.8c1.6,6.4,5,12.1,9.5,16.7l1.8-3.4
					c3.8-1.3,8.7-3,12.5-3.9c1.2-0.3,1.9-0.3,2.4-0.3l2,3.7c-0.4,0.2-0.9,0.5-1.8,0.8c-5,1.4-10,3-15,4.9c0.1,0.1,0.3,0.2,0.4,0.4
					c5.3-1.8,10-3.4,15.1-4.2c1.3-0.2,1.7-0.2,2.1-0.2l1.9,3.5c-0.4,0.2-1.1,0.6-1.8,0.8c-4.2,1-8.2,2.3-12.3,3.7
					c0.2,0.1,0.4,0.2,0.5,0.3c4.4-1.3,8.1-2.4,12.2-2.7c1.2-0.1,1.9-0.1,2.4-0.1l1.8,3.4c-0.3,0.2-0.9,0.5-1.8,0.7
					c-2.6,0.5-4.4,1.1-6.9,2.1c0.3,0.1,0.5,0.2,0.8,0.2c2.6-0.8,4.4-1.1,6.4-1.3c1.2-0.1,2.1,0,2.5,0l1,1.8l1.2-2.2
					c0.5,0.1,0.8,0.1,1.2,0.1c2.4-0.1,6,0.2,9.1,1c2.8-0.9,5.5-2.2,7.9-3.7c-5.1-0.6-10.5-0.7-15.6,0c-0.5,0.1-1,0.2-1.4,0.3
					l1.8-3.5c0.5,0.1,0.9,0.1,1.3,0.1c5.4,0,10,0.9,15,2.3c1.6-1.1,3.3-2.5,4.8-3.8c-6.5-1.9-11.9-2.3-18.1-1.7
					c-0.5,0-1,0.1-1.4,0.3l1.7-3.1c0.4,0.1,0.8,0.1,1.1,0.2c6.4,0.3,11.7,1.5,17.5,3.7l0,0l-3.3-6.3
					C97.7,120.7,93.6,120.6,89.2,120.9z M63.5,108l2.9,5.5c-0.5,0.4-1.1,0.7-1.9,0.9c-2.4,0.8-4.1,1.5-5.6,2.1L63.5,108z
					 M67.1,119.4c-3.8,1.2-7.9,2.6-11.9,4.2l3.3-6.3c2.1-0.8,4.3-1.6,6.1-2.1c1.2-0.4,1.8-0.4,2.3-0.4l2,3.8
					C68.6,118.8,67.9,119.1,67.1,119.4z"/>
				<path fill="#191919" d="M97.7,113.5l-2.9-5.5l-2.3,4.4c0.3,0.2,0.7,0.3,1.1,0.3C94.9,113,96.2,113.2,97.7,113.5z"/>
				<path fill="#191919" d="M89.5,118.1c0.4,0.2,0.9,0.3,1.2,0.3c2.5,0.2,6.4,0.8,10.5,1.9l-2.9-5.5c-1.8-0.3-3.7-0.4-5.7-0.3
					c-0.4,0-0.9,0.1-1.4,0.3L89.5,118.1z"/>
				<path fill="#191919" d="M79.1,65.3c-2.3,0-4.5,0.2-6.7,0.6l12.9,24.3L94.4,73l20.1,37.9c0.7-2.9,1.1-5.9,1.1-9.1
					C115.7,81.6,99.3,65.3,79.1,65.3z"/>
			</g>
		</g>
		<g>
			<path fill="#191919" d="M169.2,114.7c3-6.2,5.6-12.4,8.2-18.6c1.4-3.4,2.9-6.7,4.4-10.1c1.3-3.1,2.6-6.2,3.9-9.5l0,0
				c1.8,0.1,3.8,0.1,5.6,0.1c2,0,4-0.1,6-0.1v1.8c-2.3,0-3.9,0.1-4.8,0.8c-0.9,0.7-1.3,1.8-1.3,4.1c0,10.8,0.6,22.2,0.9,32.5
				c0.1,5.1,0.6,6.6,7.4,6.6v1.8c-3.8,0-7.5-0.1-11.2-0.1c-3.3,0-6.6,0.1-10,0.1v-1.8c2.4,0,4.1,0,5.2-0.6c1.2-0.7,1.8-2,1.8-4.6
				l-0.1-32.5H185L170.6,118c-0.7,1.6-2.1,5-2.7,6.8h-1.4c-5.8-13-10.3-25.8-16.8-38.6h-0.1l-0.5,24.7c0,0.9-0.1,3.3-0.1,4.3
				c0,3.3,0.3,5.2,1.4,6.1c1.1,1,2.8,1.2,5.5,1.2v1.8c-2.8,0-5.7-0.1-8.5-0.1c-3,0-6.1,0.1-9.1,0.1v-1.8c4.8,0,7.8-1.2,8.1-10.3
				c0.3-9.3,0.7-18.6,0.7-27.9c0-2.4-0.3-3.9-1.3-4.7c-1-0.8-2.5-1.1-4.7-1.1v-1.8c2.4,0.1,4.8,0.1,7.2,0.1c1.4,0,2.9-0.1,4.4-0.1
				L169.2,114.7z"/>
			<path fill="#191919" d="M205,105.2c-0.1,0.6-0.1,1.6,0,3.9c0.4,6.4,4.6,11.7,10,11.7c3.7,0,6.7-2,9.2-4.5l0.9,1
				c-3.1,4.1-7,7.7-12.6,7.7c-10.8,0-13-10.5-13-14.8c0-13.3,9-17.2,13.7-17.2c5.5,0,11.4,3.5,11.5,10.7c0,0.4,0,0.8-0.1,1.2
				l-0.6,0.4L205,105.2L205,105.2z M217,103c1.7,0,1.9-0.9,1.9-1.7c0-3.5-2.1-6.2-5.9-6.2c-4.1,0-7,3.1-7.8,7.9
				C205.2,103,217,103,217,103z"/>
			<path fill="#191919" d="M237.6,115.5c0,4.5,2.4,5.7,4.3,5.7s3.2-0.6,4.8-2l1,1c-2.4,2.4-5.4,4.6-9,4.6c-4.3,0-6.5-2.3-6.5-6.3
				v-21h-4.5v-1.1c3.5-2.7,5.6-4,9.1-9.5h0.8v6.9h10.1v3.7h-10.1L237.6,115.5L237.6,115.5z"/>
			<path fill="#191919" d="M250.6,122.1h1.8c1.9,0,3.3,0,3.3-2.2v-19.1c0-2.1-2.5-2.5-3.5-3.1v-1c5-2.1,7.7-3.9,8.3-3.9
				c0.4,0,0.6,0.2,0.6,0.9v6.1h0.1c1.7-2.6,4.6-7,8.7-7c1.7,0,3.9,1.2,3.9,3.6c0,1.8-1.3,3.5-3.2,3.5c-2.1,0-2.1-1.6-4.5-1.6
				c-1.2,0-5,1.6-5,5.6v16c0,2.2,1.4,2.2,3.3,2.2h3.8v1.8c-3.7-0.1-6.6-0.1-9.5-0.1c-2.8,0-5.6,0.1-8.1,0.1L250.6,122.1L250.6,122.1
				z"/>
			<path fill="#191919" d="M290.6,92.9c9.4,0,16.5,6.2,16.5,15.9c0,8.8-6.9,16.2-15.6,16.2c-9,0-16.4-6.2-16.4-15.9
				C275,100.3,281.5,92.9,290.6,92.9z M291.4,123.2c6.8,0,9.4-7.9,9.4-13.7c0-5.6-3-14.8-10.2-14.8c-6.7,0-9.4,7.9-9.4,13.7
				C281.3,113.9,284.3,123.2,291.4,123.2z"/>
		</g>
	</g>
</g>
<g id="Guides" display="none">
	<rect x="324.8" y="106" display="inline" fill="#8FFFFF" width="3.3" height="3.3"/>
	<rect x="44" y="106" display="inline" fill="#8FFFFF" width="3.3" height="3.3"/>
	<rect x="60" y="0.4" display="inline" fill="#F9FF00" width="47.6" height="47.6"/>
	<rect x="62" y="153.4" display="inline" fill="#F9FF00" width="47.6" height="47.6"/>
	<rect y="77.4" display="inline" fill="#F9FF00" width="47.6" height="47.6"/>
	<rect x="319" y="84.4" display="inline" fill="#F9FF00" width="47.6" height="47.6"/>
</g>
</svg>
